<?xml version="1.0" encoding="UTF-8" standalone="no"?>
<svg width="603px" height="324px" viewBox="0 0 603 324" version="1.1" xmlns="http://www.w3.org/2000/svg" xmlns:xlink="http://www.w3.org/1999/xlink">
    <!-- Generator: Sketch 39.1 (31720) - http://www.bohemiancoding.com/sketch -->
    <title>Taxify_logo</title>
    <desc>Created with Sketch.</desc>
    <defs>
        <polygon id="path-1" points="122.713 150.2605 122.713 0.508 0.4527 0.508 0.4527 150.2605 122.713 150.2605"></polygon>
        <polygon id="path-3" points="0 324.492 602.713 324.492 602.713 1 0 1"></polygon>
    </defs>
    <g id="Press-kit" stroke="none" stroke-width="1" fill="none" fill-rule="evenodd">
        <g id="Artboard" transform="translate(-451.000000, -697.000000)">
            <g id="Taxify_logo" transform="translate(451.000000, 696.000000)">
                <path d="M13.2242,196.6254 L0.0002,196.6254 L0.0002,173.7414 L13.2242,173.7414 L13.2242,133.2194 L38.4182,133.2194 L38.4182,173.7414 L61.7272,173.7414 L61.7272,196.6254 L38.4182,196.6254 L38.4182,243.8664 C38.4182,255.4144 42.4102,259.6204 51.6512,259.6204 C54.7972,259.6204 57.7392,259.4074 60.4632,258.7754 L60.4632,281.2464 C56.8962,282.0824 52.4872,282.5004 47.4532,282.5004 C24.5612,282.5004 13.2242,270.5334 13.2242,246.5974 L13.2242,196.6254 L13.2242,196.6254 Z" id="Fill-1" fill="#010201"></path>
                <path d="M146.092,249.7508 C152.39,243.6568 155.538,235.8918 155.538,226.6548 C155.538,217.4198 152.39,209.6468 146.092,203.5558 C140.003,197.4668 132.235,194.3148 123.205,194.3148 C114.179,194.3148 106.828,197.4668 100.744,203.5558 C94.861,209.6468 91.919,217.4198 91.919,226.6548 C91.919,235.8918 94.861,243.6568 100.744,249.7508 C106.828,255.8338 114.179,258.9848 123.205,258.9848 C132.235,258.9848 140.003,255.8338 146.092,249.7508 M153.652,189.0738 L153.652,173.7418 L178.843,173.7418 L178.843,247.6498 C178.843,256.6768 180.945,260.0398 186.614,260.0398 C188.08,260.0398 189.971,259.8298 191.862,259.6198 L191.862,279.9828 C189.135,281.0328 184.932,281.6598 179.476,281.6598 C173.386,281.6598 168.556,280.6148 164.779,278.3018 C160.159,275.1548 157.217,270.9548 156.168,265.4918 C148.819,276.6318 136.645,282.0818 119.843,282.0818 C104.942,282.0818 92.341,276.8318 82.055,266.1248 C71.974,255.4148 66.933,242.3988 66.933,226.6548 C66.933,210.9028 71.974,197.8888 82.055,187.3878 C92.341,176.6838 104.942,171.4308 119.843,171.4308 C136.855,171.4308 149.658,178.9938 153.652,189.0738" id="Fill-3" fill="#010201"></path>
                <polygon id="Fill-5" fill="#010201" points="198.6482 279.5599 238.7462 223.7139 202.2172 173.7409 229.5112 173.7409 252.6082 205.4519 275.4922 173.7409 302.9972 173.7409 266.4662 223.5049 306.5642 279.5599 279.4812 279.5599 252.6082 242.1899 225.7322 279.5599"></polygon>
                <path d="M314.5075,173.7414 L339.7015,173.7414 L339.7015,248.0714 C339.7015,256.2564 341.3785,259.1974 347.0525,259.1974 C348.9395,259.1974 350.4085,258.9854 351.4595,258.7754 L351.4595,279.9824 C348.9395,281.0334 344.7415,281.6594 338.8595,281.6594 C322.6955,281.6594 314.5075,272.6334 314.5075,254.7894 L314.5075,173.7414 Z M311.9855,146.4524 C311.9855,138.0474 318.7045,131.5424 327.1025,131.5424 C335.2915,131.5424 342.0085,138.0474 342.0085,146.4524 C342.0085,154.8464 335.2915,161.3514 327.1025,161.3514 C318.7045,161.3514 311.9855,154.8464 311.9855,146.4524 L311.9855,146.4524 Z" id="Fill-7" fill="#010201"></path>
                <path d="M372.4574,279.5599 L372.4574,196.6249 L355.2374,196.6249 L355.2374,173.7409 L372.4574,173.7409 L372.4574,168.4929 C372.4574,152.3249 375.8104,143.7209 384.0024,137.2039 C389.6724,132.5879 398.2814,130.2849 410.2494,130.2849 C414.4504,130.2849 418.0204,130.4889 421.1614,131.1209 L421.1614,152.7479 C419.2764,152.1139 415.9204,151.6939 411.5104,151.6939 C402.0624,151.6939 397.6534,155.8999 397.6534,166.6039 L397.6534,173.7409 L417.5974,173.7409 L417.5974,196.6249 L397.6534,196.6249 L397.6534,279.5599 L372.4574,279.5599 Z" id="Fill-9" fill="#010201"></path>
                <path d="M439.3083,300.7669 C442.4583,301.8179 446.4533,302.4499 451.0663,302.4499 C455.0583,302.4499 457.9913,301.6079 460.3073,300.1339 C462.6183,298.6739 464.7173,295.5179 466.3943,291.1079 L469.1243,283.5569 L424.8243,173.7409 L450.2273,173.7409 L481.3043,253.5249 L510.4903,173.7409 L535.8933,173.7409 L488.4423,296.7829 C485.2883,304.9659 481.5173,311.2699 477.1033,315.6779 C470.8013,321.5639 462.4083,324.4919 451.6983,324.4919 C447.0783,324.4919 442.8783,323.8599 439.3083,322.8189 L439.3083,300.7669 Z" id="Fill-11" fill="#010201"></path>
                <g id="Group-15" transform="translate(480.000000, 0.492000)">
                    <mask id="mask-2" fill="white">
                        <use xlink:href="#path-1"></use>
                    </mask>
                    <g id="Clip-14"></g>
                    <path d="M61.5847,12.4445 C34.6367,12.4445 12.7877,34.2845 12.7877,61.2405 C12.7877,88.1855 34.6367,110.0425 61.5847,110.0425 C88.5397,110.0425 110.3777,88.1855 110.3777,61.2405 C110.3777,34.2845 88.5397,12.4445 61.5847,12.4445 M122.7137,61.6445 C122.7137,94.2295 102.1407,110.6825 61.5847,150.2605 L61.5847,122.7785 C27.8117,122.7785 0.4527,95.4105 0.4527,61.6445 C0.4527,27.8885 27.8117,0.5075 61.5847,0.5075 C95.3427,0.5075 122.7137,27.8885 122.7137,61.6445" id="Fill-13" fill="#FEE517" mask="url(#mask-2)"></path>
                </g>
                <mask id="mask-4" fill="white">
                    <use xlink:href="#path-3"></use>
                </mask>
                <g id="Clip-17"></g>
                <polygon id="Fill-16" fill="#FEE517" mask="url(#mask-4)" points="510.13 77.469 531.101 77.469 531.101 56.494 510.13 56.494"></polygon>
                <polygon id="Fill-18" fill="#FEE517" mask="url(#mask-4)" points="531.1 56.494 552.068 56.494 552.068 35.523 531.1 35.523"></polygon>
                <polygon id="Fill-19" fill="#FEE517" mask="url(#mask-4)" points="552.068 77.469 573.045 77.469 573.045 56.494 552.068 56.494"></polygon>
            </g>
        </g>
    </g>
</svg>